<svg width="221" height="100" viewBox="0 0 221 100" fill="none" xmlns="http://www.w3.org/2000/svg">
<path fill-rule="evenodd" clip-rule="evenodd" d="M55.4987 1.39841C54.1182 2.14735 52.3645 3.96699 51.6028 5.44195C50.8401 6.91599 50.2158 8.98131 50.2158 10.0309C50.2158 11.0805 50.8025 13.3429 51.5184 15.0581C52.2426 16.7915 54.054 18.8138 55.5986 19.6122C57.1259 20.4015 59.4469 21.0478 60.7578 21.0478C62.0687 21.0478 64.3503 20.4217 65.8299 19.6571C67.3085 18.8926 69.1446 17.0565 69.9092 15.5778C70.6737 14.0983 71.2998 11.8166 71.2998 10.5058C71.2998 9.1949 70.7021 6.96733 69.9715 5.5547C69.2409 4.14208 67.6055 2.30594 66.3368 1.47449C65.069 0.643967 62.6755 -0.0197196 61.0191 0.000447731C59.3626 0.020615 56.8783 0.649467 55.4987 1.39841ZM101.478 2.39486C100.257 3.72773 95.0449 8.18562 89.894 12.3016C84.744 16.4166 77.7588 21.4089 74.3716 23.3945C70.9844 25.381 65.5567 28.1448 62.3098 29.5364C59.0628 30.9288 52.9485 32.7466 48.7216 33.5771C42.2882 34.8413 40.2247 34.9054 36.0565 33.9732C33.3184 33.3599 30.021 32.027 28.7294 31.0113C27.4378 29.9956 26.3817 29.5153 26.3817 29.9443C26.3817 30.3724 28.2289 35.1924 30.4858 40.6549C32.7427 46.1175 35.6376 52.462 36.9182 54.7537L39.2475 58.921L25.7107 72.731C18.2644 80.3268 11.9667 86.773 11.7146 87.0562C11.4625 87.3386 8.36868 90.6267 4.8394 94.3614C1.31013 98.096 -0.752436 100.58 0.255928 99.8826C1.26429 99.1841 3.94563 96.8786 6.21445 94.7592C8.48326 92.6398 14.0128 88.1581 18.5018 84.7993C22.9909 81.4415 30.8479 76.6508 35.9621 74.1528C41.2175 71.5861 48.2293 68.9836 52.0914 68.1668C56.4337 67.2492 60.7532 66.9302 63.9396 67.2932C66.7887 67.6168 70.703 68.8873 73.0003 70.233C75.2242 71.5366 76.8669 72.2443 76.6496 71.8052C76.4324 71.367 75.7714 69.9764 75.1802 68.7159C74.5889 67.4554 72.3961 62.5053 70.3079 57.7156C68.2197 52.9258 65.971 47.4999 65.3101 45.6583L64.1101 42.3087L79.4492 26.866C87.8865 18.3719 96.9929 9.04639 99.6871 6.14139C102.381 3.23638 104.386 0.660468 104.141 0.415711C103.897 0.170953 102.698 1.06198 101.478 2.39486ZM88.717 43.8295C88.717 51.4014 88.3109 58.6634 87.8159 59.9679C87.2127 61.5528 85.9972 62.5218 84.1491 62.8921C82.6274 63.1965 81.3834 64.0123 81.3834 64.7054C81.3834 65.4057 82.3111 65.9658 83.4707 65.9658C84.6194 65.9658 86.4188 65.3635 87.4703 64.6274C88.5208 63.8913 89.8619 62.1276 90.4495 60.7086C91.1444 59.031 91.4295 53.3521 91.2636 44.4757C91.0784 34.5553 90.6952 30.7198 89.8629 30.443C88.9801 30.1496 88.717 33.2233 88.717 43.8295ZM120.801 43.9651C120.801 55.5769 121.015 57.7156 122.176 57.7156C123.124 57.7156 123.551 56.764 123.551 54.6492C123.551 52.8112 124.243 50.9577 125.276 50.0227C126.736 48.7008 127.193 48.654 128.255 49.7174C128.945 50.4077 130.541 52.4867 131.802 54.3375C133.062 56.1883 134.609 57.7055 135.239 57.7091C135.87 57.7128 136.385 57.359 136.385 56.9226C136.385 56.4863 135.619 55.1461 134.681 53.9434C133.744 52.7407 132.315 50.4645 131.505 48.885C130.045 46.0387 130.061 45.9846 133.322 42.6268C135.617 40.2635 136.32 38.9499 135.649 38.2789C134.977 37.6069 133.186 38.7363 129.718 42.0162C126.985 44.6004 124.48 46.7152 124.15 46.7152C123.821 46.7152 123.551 43.0026 123.551 38.465C123.551 31.7428 123.297 30.2147 122.176 30.2147C121.015 30.2147 120.801 32.3534 120.801 43.9651ZM194.546 31.2112C194.207 31.7593 194.389 32.6669 194.95 33.2279C195.699 33.9768 196.242 33.9768 196.991 33.2279C197.552 32.6669 197.733 31.7593 197.395 31.2112C197.056 30.663 196.415 30.2147 195.97 30.2147C195.526 30.2147 194.885 30.663 194.546 31.2112ZM101.333 38.9829C99.9529 39.7318 98.1993 41.5515 97.4375 43.0264C96.6748 44.5005 96.0505 46.8738 96.0505 48.2993C96.0505 49.7247 96.7537 51.911 97.6126 53.1568C98.4715 54.4035 99.8127 55.9106 100.592 56.5046C101.371 57.0995 103.299 57.8301 104.876 58.129C106.451 58.4278 108.834 58.2573 110.169 57.7495C111.505 57.2416 112.844 56.1838 113.146 55.3982C113.448 54.6125 113.464 53.7389 113.182 53.4575C112.9 53.1752 111.726 53.606 110.573 54.4136C109.42 55.2212 107.593 55.8822 106.512 55.8822C105.432 55.8822 103.461 55.0269 102.133 53.9819C100.805 52.9377 99.7173 51.494 99.7173 50.7734C99.7173 49.7366 101.435 49.4653 107.996 49.4653C114.553 49.4653 116.387 49.1756 116.809 48.0738C117.103 47.3083 116.814 45.4034 116.167 43.8405C115.518 42.2775 113.719 40.2232 112.166 39.2762C110.613 38.3302 108.105 37.5703 106.593 37.5886C105.08 37.6069 102.713 38.234 101.333 38.9829ZM145.552 38.1936C144.796 38.4686 143.042 39.7511 141.656 41.0427C139.6 42.9586 139.135 44.1824 139.135 47.6796C139.135 50.6176 139.728 52.7223 141.018 54.3614C142.053 55.6777 144.445 57.2178 146.333 57.7834C149.098 58.6121 150.425 58.536 153.159 57.3938C155.025 56.6137 156.552 56.3671 156.552 56.8456C156.552 57.3241 157.171 57.7156 157.927 57.7156C159.024 57.7156 159.303 56.3634 159.303 51.0448C159.303 46.4824 158.85 43.7268 157.872 42.3307C157.085 41.2068 155.249 39.6713 153.792 38.9178C152.336 38.1643 150.194 37.5813 149.036 37.6207C147.876 37.6601 146.308 37.9186 145.552 38.1936ZM163.393 38.6831C163.129 39.3707 164.808 43.9349 167.125 48.8245C169.441 53.7151 171.852 57.7156 172.483 57.7156C173.114 57.7156 174.329 56.2498 175.183 54.4585C176.038 52.6664 177.149 51.4555 177.651 51.7662C178.154 52.077 179.193 53.5428 179.958 55.0232C180.724 56.5046 181.726 57.7156 182.185 57.7156C182.644 57.7156 184.915 53.7151 187.231 48.8245C189.548 43.9349 191.227 39.3707 190.963 38.6831C190.699 37.9947 190.106 37.6647 189.646 37.9498C189.186 38.234 187.297 41.5671 185.45 45.3558C183.603 49.1445 181.724 52.0174 181.275 51.7396C180.826 51.4619 180.194 49.8283 179.871 48.1086C179.483 46.0369 179.784 43.9826 180.767 42.0135C181.849 39.8437 181.974 38.7803 181.23 38.0662C180.501 37.3677 179.814 37.6766 178.813 39.1525C178.042 40.2864 177.051 41.215 176.608 41.215C176.165 41.215 175.803 40.5963 175.803 39.84C175.803 39.0837 175.184 38.465 174.428 38.465C173.672 38.465 173.053 39.2652 173.053 40.2443C173.053 41.2233 173.465 42.2784 173.97 42.5901C174.474 42.9018 174.886 44.4968 174.886 46.1359C174.886 47.774 174.306 49.909 173.597 50.8788C172.397 52.5179 172.067 52.1411 168.948 45.5684C167.101 41.6771 165.203 38.2541 164.731 37.9626C164.259 37.6711 163.657 37.9947 163.393 38.6831ZM194.748 38.1597C194.412 38.4952 194.137 42.8028 194.137 47.7309C194.137 53.3154 194.521 56.9281 195.156 57.3205C195.716 57.667 196.535 57.3819 196.975 56.687C197.416 55.9922 197.782 53.3154 197.79 50.7395C197.797 48.1627 197.542 44.1402 197.221 41.8017C196.9 39.4623 196.35 37.5483 195.999 37.5483C195.647 37.5483 195.084 37.8233 194.748 38.1597ZM202.788 38.7418C202.527 39.422 202.434 43.8322 202.58 48.5431C202.761 54.3834 203.21 57.2297 203.991 57.4882C204.836 57.7678 205.137 56.1746 205.137 51.4408C205.137 46.8078 205.542 44.6087 206.584 43.5664C207.379 42.7707 208.831 41.6908 209.81 41.1674C211.091 40.4817 212.289 40.5495 214.092 41.4103C216.443 42.5333 216.624 43.0539 217.054 49.9319C217.411 55.6283 217.819 57.2572 218.888 57.2572C219.888 57.2572 220.342 56.0087 220.551 52.6765C220.71 50.1565 220.58 46.707 220.262 45.0111C219.943 43.3152 218.698 40.9419 217.493 39.7373C216.058 38.3018 214.248 37.5483 212.237 37.5483C210.55 37.5483 208.666 38.0534 208.048 38.6712C207.161 39.5577 206.539 39.5531 205.093 38.6501C203.608 37.7234 203.173 37.7399 202.788 38.7418ZM112.202 42.6158C113.477 43.8909 114.351 45.4383 114.147 46.0534C113.898 46.8014 111.514 47.1736 106.975 47.1736C100.713 47.1736 100.154 47.0177 99.8942 45.1999C99.7182 43.9624 100.393 42.679 101.703 41.7623C102.852 40.9565 105.162 40.2984 106.838 40.2984C108.874 40.2984 110.653 41.0665 112.202 42.6158ZM154.302 42.5488C155.845 44.0916 156.552 45.8205 156.552 48.049C156.552 50.0767 155.863 51.988 154.719 53.1321C153.471 54.3797 151.664 54.9655 149.062 54.9655C146.791 54.9655 144.557 54.3495 143.562 53.4483C142.485 52.4739 141.885 50.6561 141.885 48.3653C141.885 45.8004 142.518 44.1659 144.136 42.5488C145.554 41.1298 147.433 40.2984 149.219 40.2984C151.005 40.2984 152.884 41.1298 154.302 42.5488Z" fill="white"/>
</svg>
